<svg width="187" height="40" viewBox="0 0 187 40" fill="none" xmlns="http://www.w3.org/2000/svg">
<path d="M44.7088 26.8986L46.5183 25.0869C47.1122 24.4923 47.1122 23.5282 46.5183 22.9336L36.7246 13.1277C36.1307 12.5331 35.1678 12.5331 34.5739 13.1277L32.7644 14.9395C32.1705 15.5341 32.1705 16.4982 32.7644 17.0928L42.5581 26.8986C43.152 27.4933 44.1149 27.4933 44.7088 26.8986Z" fill="#000028"/>
<path d="M38.6618 30.8625L30.6772 22.8681L28.8669 21.0555L24.9379 17.1217C24.3438 16.5268 24.3438 15.5636 24.9379 14.9688L30.6698 9.22984C31.2639 8.63496 31.2639 7.67179 30.6698 7.07692L28.8594 5.26433C28.2653 4.66946 27.3033 4.66946 26.7092 5.26433L19.9017 12.0802L17.0167 14.9688L9.05734 22.938C8.4632 23.5329 8.4632 24.496 9.05734 25.0909L10.8677 26.9035C11.4618 27.4984 12.4238 27.4984 13.0179 26.9035L18.8261 21.0881C19.4203 20.4932 20.3823 20.4932 20.9764 21.0881L22.7551 22.869C23.3492 23.4639 23.3492 24.427 22.7551 25.0219L16.9469 30.8373C16.3527 31.4322 16.3527 32.3953 16.9469 32.9902L18.7572 34.8028C19.3514 35.3977 20.3134 35.3977 20.9075 34.8028L26.7157 28.9874C27.3098 28.3925 28.2718 28.3925 28.866 28.9874L34.7002 34.8289C35.2944 35.4238 36.2564 35.4238 36.8505 34.8289L38.6608 33.0163C39.255 32.4214 39.255 31.4583 38.6608 30.8634L38.6618 30.8625Z" fill="#000028"/>
<path d="M58.5589 10.3403H61.7773C62.0762 10.3403 62.3183 10.5827 62.3183 10.882V17.1608C62.3183 17.4601 62.5604 17.7026 62.8594 17.7026H71.0451C71.344 17.7026 71.5861 17.4601 71.5861 17.1608V10.882C71.5861 10.5827 71.8282 10.3403 72.1272 10.3403H75.3456C75.6445 10.3403 75.8866 10.5827 75.8866 10.882V29.4014C75.8866 29.7007 75.6445 29.9431 75.3456 29.9431H72.1244C71.8264 29.9431 71.5843 29.7026 71.5833 29.4042L71.5405 22.1128C71.5386 21.8145 71.2965 21.5739 70.9994 21.5739H62.8594C62.5604 21.5739 62.3183 21.8163 62.3183 22.1156V29.4014C62.3183 29.7007 62.0762 29.9431 61.7773 29.9431H58.5589C58.2599 29.9431 58.0178 29.7007 58.0178 29.4014V10.883C58.0178 10.5837 58.2599 10.3413 58.5589 10.3413V10.3403Z" fill="#000028"/>
<path d="M81.1342 10.3403H95.5016C95.8005 10.3403 96.0426 10.5827 96.0426 10.882V13.7044C96.0426 14.0037 95.8005 14.2462 95.5016 14.2462H85.4105C85.1116 14.2462 84.8695 14.4886 84.8695 14.7879V17.1338C84.8695 17.4331 85.1107 17.6755 85.4096 17.6755L92.1751 17.6923C92.4741 17.6923 92.7152 17.9357 92.7152 18.234V20.9352C92.7152 21.2345 92.4731 21.4769 92.1742 21.4769H85.4105C85.1116 21.4769 84.8695 21.7193 84.8695 22.0186V25.4834C84.8695 25.7827 85.1116 26.0252 85.4105 26.0252H95.5267C95.8256 26.0252 96.0677 26.2676 96.0677 26.5669V29.3977C96.0677 29.697 95.8256 29.9394 95.5267 29.9394H81.1342C80.8353 29.9394 80.5932 29.697 80.5932 29.3977V10.883C80.5932 10.5837 80.8353 10.3413 81.1342 10.3413V10.3403Z" fill="#000028"/>
<path d="M111.301 29.7678L104.892 22.7674C104.559 22.4028 103.952 22.6396 103.952 23.1338V29.4023C103.952 29.7016 103.71 29.9441 103.411 29.9441H100.192C99.8933 29.9441 99.6512 29.7016 99.6512 29.4023V10.883C99.6512 10.5837 99.8933 10.3413 100.192 10.3413H108.977C113.509 10.3413 116.368 12.6471 116.368 16.5828C116.368 20.5184 114.054 22.4196 109.816 22.5641C109.816 22.5641 114.284 27.0396 116.262 29.02C116.603 29.3613 116.36 29.9441 115.877 29.9441H111.7C111.548 29.9441 111.404 29.8807 111.3 29.7678H111.301ZM103.952 18.4559C103.952 18.7552 104.194 18.9977 104.493 18.9977H109.32C110.946 18.9977 111.981 18.1921 111.981 16.5818C111.981 14.9716 110.946 14.1846 109.32 14.1846H104.493C104.194 14.1846 103.952 14.427 103.952 14.7263V18.4541V18.4559Z" fill="#000028"/>
<path d="M119.058 20.1576C119.058 14.6536 123.447 10.3413 129.177 10.3413C132.207 10.3413 134.863 11.5478 136.692 13.4984C136.902 13.7231 136.876 14.0811 136.634 14.2704L134.283 16.1119C134.07 16.2779 133.768 16.2527 133.582 16.0559C132.486 14.8988 130.913 14.2145 129.166 14.2145C125.854 14.2145 123.168 16.676 123.168 20.1501C123.168 23.6242 125.854 26.0858 129.166 26.0858C130.945 26.0858 132.543 25.3762 133.642 24.1809C133.824 23.9823 134.124 23.9524 134.339 24.1147L136.728 25.9179C136.973 26.1026 137.008 26.4597 136.802 26.6862C134.969 28.6984 132.268 29.945 129.177 29.945C123.448 29.945 119.058 25.6615 119.058 20.1585V20.1576Z" fill="#000028"/>
<path d="M141.029 10.3403H144.247C144.546 10.3403 144.789 10.5837 144.788 10.883L144.765 25.4872C144.765 25.7865 145.007 26.0298 145.306 26.0298H154.133C154.432 26.0298 154.674 26.2723 154.674 26.5716V29.4005C154.674 29.6998 154.432 29.9422 154.133 29.9422H141.029C140.73 29.9422 140.487 29.6998 140.487 29.4005V10.883C140.487 10.5837 140.73 10.3413 141.029 10.3413L141.029 10.3403Z" fill="#000028"/>
<path d="M157.885 10.3403H172.252C172.551 10.3403 172.793 10.5827 172.793 10.882V13.7044C172.793 14.0037 172.551 14.2462 172.252 14.2462H162.161C161.862 14.2462 161.62 14.4886 161.62 14.7879V17.1338C161.62 17.4331 161.861 17.6755 162.16 17.6755L168.926 17.6923C169.225 17.6923 169.466 17.9357 169.466 18.234V20.9352C169.466 21.2345 169.224 21.4769 168.925 21.4769H162.161C161.862 21.4769 161.62 21.7193 161.62 22.0186V25.4834C161.62 25.7827 161.862 26.0252 162.161 26.0252H172.278C172.576 26.0252 172.819 26.2676 172.819 26.5669V29.3977C172.819 29.697 172.576 29.9394 172.278 29.9394H157.885C157.586 29.9394 157.344 29.697 157.344 29.3977V10.883C157.344 10.5837 157.586 10.3413 157.885 10.3413V10.3403Z" fill="#000028"/>
</svg>
