<svg width="235" height="45" viewBox="0 0 235 45" fill="none" xmlns="http://www.w3.org/2000/svg">
<g clip-path="url(#clip0_212_300)">
<path d="M51.8525 32.3304L54.4369 29.7486C55.2851 28.9013 55.2851 27.5275 54.4369 26.6801L40.4496 12.7068C39.6014 11.8594 38.2262 11.8594 37.378 12.7068L34.7937 15.2885C33.9455 16.1359 33.9455 17.5097 34.7937 18.357L48.781 32.3304C49.6292 33.1777 51.0044 33.1777 51.8525 32.3304Z" fill="#F5F5F5"/>
<path d="M43.2163 37.9788L31.8129 26.5868L29.2274 24.0039L23.6161 18.3982C22.7675 17.5505 22.7675 16.178 23.6161 15.3303L31.8022 7.15233C32.6508 6.30464 32.6508 4.93212 31.8022 4.08443L29.2167 1.50149C28.3682 0.6538 26.9943 0.6538 26.1457 1.50149L16.4235 11.2141L12.3031 15.3303L0.935599 26.6865C0.0870593 27.5341 0.0870593 28.9067 0.935599 29.7544L3.52112 32.3373C4.36966 33.185 5.74355 33.185 6.59209 32.3373L14.8873 24.0504C15.7358 23.2027 17.1097 23.2027 17.9583 24.0504L20.4986 26.5881C21.3471 27.4358 21.3471 28.8083 20.4986 29.656L12.2034 37.943C11.3548 38.7907 11.3548 40.1632 12.2034 41.0109L14.7889 43.5938C15.6374 44.4415 17.0113 44.4415 17.8598 43.5938L26.1551 35.3069C27.0036 34.4592 28.3775 34.4592 29.226 35.3069L37.5585 43.631C38.407 44.4787 39.7809 44.4787 40.6294 43.631L43.215 41.0481C44.0635 40.2004 44.0635 38.8279 43.215 37.9802L43.2163 37.9788Z" fill="#F5F5F5"/>
<path d="M71.6331 8.73486H76.2296C76.6565 8.73486 77.0023 9.08032 77.0023 9.50682V18.4541C77.0023 18.8806 77.3481 19.2261 77.775 19.2261H89.4657C89.8927 19.2261 90.2385 18.8806 90.2385 18.4541V9.50682C90.2385 9.08032 90.5843 8.73486 91.0112 8.73486H95.6077C96.0346 8.73486 96.3804 9.08032 96.3804 9.50682V35.8969C96.3804 36.3234 96.0346 36.6689 95.6077 36.6689H91.0072C90.5816 36.6689 90.2358 36.3261 90.2345 35.9009L90.1733 25.5107C90.1706 25.0855 89.8248 24.7427 89.4005 24.7427H77.775C77.3481 24.7427 77.0023 25.0882 77.0023 25.5147V35.8969C77.0023 36.3234 76.6565 36.6689 76.2296 36.6689H71.6331C71.2062 36.6689 70.8604 36.3234 70.8604 35.8969V9.50815C70.8604 9.08165 71.2062 8.73619 71.6331 8.73619V8.73486Z" fill="#F5F5F5"/>
<path d="M103.922 8.73486H124.441C124.868 8.73486 125.214 9.08032 125.214 9.50682V13.5287C125.214 13.9552 124.868 14.3007 124.441 14.3007H110.029C109.602 14.3007 109.256 14.6461 109.256 15.0726V18.4156C109.256 18.8421 109.601 19.1875 110.028 19.1875L119.69 19.2114C120.117 19.2114 120.462 19.5582 120.462 19.9834V23.8326C120.462 24.2591 120.116 24.6045 119.689 24.6045H110.029C109.602 24.6045 109.256 24.95 109.256 25.3765V30.3138C109.256 30.7403 109.602 31.0858 110.029 31.0858H124.477C124.904 31.0858 125.25 31.4312 125.25 31.8577V35.8916C125.25 36.3181 124.904 36.6635 124.477 36.6635H103.922C103.495 36.6635 103.149 36.3181 103.149 35.8916V9.50815C103.149 9.08165 103.495 8.73619 103.922 8.73619V8.73486Z" fill="#F5F5F5"/>
<path d="M146.959 36.4192L137.806 26.4435C137.33 25.924 136.463 26.2615 136.463 26.9657V35.8984C136.463 36.3249 136.117 36.6703 135.69 36.6703H131.093C130.666 36.6703 130.321 36.3249 130.321 35.8984V9.50829C130.321 9.08178 130.666 8.73633 131.093 8.73633H143.639C150.112 8.73633 154.195 12.0221 154.195 17.6305C154.195 23.2388 150.89 25.9479 144.838 26.1539C144.838 26.1539 151.219 32.5315 154.044 35.3536C154.531 35.8399 154.183 36.6703 153.495 36.6703H147.528C147.311 36.6703 147.105 36.58 146.958 36.4192H146.959ZM136.463 20.2998C136.463 20.7263 136.808 21.0717 137.235 21.0717H144.13C146.452 21.0717 147.93 19.9237 147.93 17.6291C147.93 15.3345 146.452 14.2131 144.13 14.2131H137.235C136.808 14.2131 136.463 14.5586 136.463 14.9851V20.2971V20.2998Z" fill="#F5F5F5"/>
<path d="M158.036 22.7246C158.036 14.8814 164.306 8.73633 172.49 8.73633C176.816 8.73633 180.609 10.4556 183.221 13.2352C183.522 13.5554 183.485 14.0656 183.139 14.3353L179.781 16.9595C179.477 17.196 179.047 17.1601 178.781 16.8798C177.215 15.2309 174.969 14.2556 172.474 14.2556C167.743 14.2556 163.907 17.7633 163.907 22.7139C163.907 27.6646 167.743 31.1723 172.474 31.1723C175.014 31.1723 177.296 30.1612 178.866 28.4578C179.126 28.1748 179.555 28.1323 179.862 28.3635L183.273 30.9331C183.623 31.1962 183.674 31.7051 183.378 32.0279C180.761 34.8952 176.904 36.6716 172.49 36.6716C164.307 36.6716 158.036 30.5677 158.036 22.7259V22.7246Z" fill="#F5F5F5"/>
<path d="M189.417 8.73486H194.012C194.439 8.73486 194.786 9.08165 194.784 9.50815L194.751 30.3191C194.751 30.7456 195.097 31.0924 195.524 31.0924H208.131C208.558 31.0924 208.904 31.4379 208.904 31.8644V35.8956C208.904 36.3221 208.558 36.6675 208.131 36.6675H189.415C188.988 36.6675 188.642 36.3221 188.642 35.8956V9.50815C188.642 9.08165 188.988 8.73619 189.415 8.73619L189.417 8.73486Z" fill="#F5F5F5"/>
<path d="M213.49 8.73486H234.009C234.436 8.73486 234.781 9.08032 234.781 9.50682V13.5287C234.781 13.9552 234.436 14.3007 234.009 14.3007H219.597C219.17 14.3007 218.824 14.6461 218.824 15.0726V18.4156C218.824 18.8421 219.169 19.1875 219.596 19.1875L229.258 19.2114C229.685 19.2114 230.029 19.5582 230.029 19.9834V23.8326C230.029 24.2591 229.684 24.6045 229.257 24.6045H219.597C219.17 24.6045 218.824 24.95 218.824 25.3765V30.3138C218.824 30.7403 219.17 31.0858 219.597 31.0858H234.045C234.472 31.0858 234.817 31.4312 234.817 31.8577V35.8916C234.817 36.3181 234.472 36.6635 234.045 36.6635H213.49C213.063 36.6635 212.717 36.3181 212.717 35.8916V9.50815C212.717 9.08165 213.063 8.73619 213.49 8.73619V8.73486Z" fill="#F5F5F5"/>
</g>
<defs>
<clipPath id="clip0_212_300">
<rect width="235" height="45" fill="white"/>
</clipPath>
</defs>
</svg>
